<?xml version="1.0" encoding="utf-8"?>
<!-- Generator: Adobe Illustrator 23.1.1, SVG Export Plug-In . SVG Version: 6.00 Build 0)  -->
<svg version="1.1" id="Ebene_1" xmlns="http://www.w3.org/2000/svg" xmlns:xlink="http://www.w3.org/1999/xlink" x="0px" y="0px"
	 viewBox="0 0 240.94 99.21" style="enable-background:new 0 0 240.94 99.21;" xml:space="preserve">
<style type="text/css">
	.st0{fill:#267326;}
</style>
<g>
	<path class="st0" d="M24.62,68.69c-10.85,0-19.64-8.79-19.64-19.64c0-10.85,8.79-19.64,19.64-19.64s19.64,8.79,19.64,19.64
		C44.26,59.9,35.46,68.69,24.62,68.69 M24.62,24.42c-6.56,0-18.38,0-24.62,0v68.76h4.94c0-10.85,8.77-19.66,19.62-19.66
		c13.56,0,24.61-11,24.61-24.55C49.17,35.41,38.17,24.42,24.62,24.42"/>
	<path class="st0" d="M103.12,49.05c0-13.56-11.01-24.56-24.57-24.56c-10.85,0-19.66-8.8-19.66-19.65l-4.87-0.01v68.73l4.91-0.04
		l0-24.47c0-10.85,8.79-19.64,19.64-19.64c10.85,0,19.64,8.79,19.64,19.64l0,24.47h4.89L103.12,49.05z"/>
	<path d="M237.03,44.45c0.11-0.27,0.26-0.5,0.44-0.69c0.18-0.19,0.38-0.34,0.6-0.43c0.22-0.1,0.46-0.15,0.7-0.15
		c0.51,0,0.92,0.18,1.22,0.54c0.3,0.36,0.45,0.91,0.45,1.65h-3.64C236.84,45.02,236.91,44.72,237.03,44.45 M239.95,48.54
		c0.27-0.12,0.52-0.24,0.75-0.38l-0.21-0.4c-0.21,0.16-0.45,0.28-0.7,0.37c-0.25,0.09-0.53,0.14-0.84,0.14
		c-0.33,0-0.62-0.06-0.88-0.18c-0.26-0.12-0.49-0.29-0.67-0.51c-0.19-0.22-0.33-0.48-0.43-0.78c-0.1-0.31-0.16-0.64-0.17-0.99h4.11
		c0.02-0.07,0.02-0.14,0.02-0.21v-0.21c0-0.84-0.19-1.49-0.58-1.95c-0.39-0.46-0.92-0.69-1.6-0.69c-0.32,0-0.62,0.07-0.92,0.21
		c-0.3,0.14-0.56,0.34-0.8,0.59c-0.23,0.26-0.42,0.57-0.56,0.94c-0.14,0.37-0.21,0.79-0.21,1.26c0,0.47,0.07,0.89,0.21,1.25
		c0.14,0.37,0.33,0.68,0.57,0.94c0.24,0.26,0.52,0.45,0.84,0.59c0.32,0.13,0.66,0.2,1.03,0.2
		C239.33,48.71,239.68,48.65,239.95,48.54 M234.86,48.7c0.05-0.01,0.11-0.03,0.17-0.04l-0.1-0.43c-0.06,0.02-0.11,0.02-0.14,0.02
		h-0.08c-0.07,0-0.13-0.03-0.18-0.09c-0.05-0.06-0.07-0.15-0.07-0.28v-7.85h-0.52v7.78c0,0.6,0.23,0.9,0.7,0.9
		C234.73,48.71,234.8,48.71,234.86,48.7 M230.47,48.42c0.31-0.2,0.6-0.46,0.88-0.8h0.02l0.06,0.95h0.44v-5.7h-0.52v4.21
		c-0.33,0.4-0.64,0.7-0.92,0.88c-0.28,0.19-0.59,0.28-0.93,0.28c-0.46,0-0.79-0.14-0.99-0.43c-0.2-0.29-0.3-0.74-0.3-1.35v-3.59
		h-0.52v3.66c0,0.74,0.14,1.3,0.42,1.65c0.28,0.36,0.71,0.53,1.31,0.53C229.81,48.71,230.16,48.61,230.47,48.42 M222.08,48.57v-4.3
		c0.35-0.36,0.66-0.62,0.94-0.8c0.28-0.18,0.59-0.27,0.93-0.27c0.47,0,0.8,0.14,1,0.43c0.2,0.29,0.3,0.74,0.3,1.35v3.59h0.52v-3.66
		c0-0.75-0.14-1.3-0.42-1.65c-0.28-0.36-0.71-0.53-1.31-0.53c-0.4,0-0.75,0.1-1.06,0.29c-0.31,0.19-0.61,0.44-0.92,0.74v-3.73h-0.52
		v8.54H222.08z M219.26,48.5c0.3-0.14,0.57-0.32,0.82-0.53l-0.27-0.37c-0.2,0.18-0.43,0.34-0.68,0.46
		c-0.26,0.13-0.54,0.19-0.84,0.19c-0.31,0-0.59-0.06-0.85-0.18c-0.26-0.12-0.47-0.3-0.65-0.52c-0.18-0.22-0.32-0.49-0.42-0.8
		c-0.1-0.31-0.15-0.65-0.15-1.02c0-0.38,0.05-0.72,0.16-1.03c0.11-0.31,0.25-0.58,0.44-0.8c0.19-0.23,0.4-0.4,0.65-0.52
		c0.25-0.12,0.52-0.18,0.81-0.18c0.28,0,0.53,0.06,0.75,0.17c0.22,0.12,0.42,0.26,0.61,0.43l0.31-0.37
		c-0.2-0.18-0.43-0.34-0.69-0.49c-0.26-0.14-0.59-0.21-0.99-0.21c-0.35,0-0.68,0.07-0.99,0.2c-0.31,0.13-0.59,0.33-0.82,0.58
		c-0.24,0.25-0.43,0.57-0.57,0.94c-0.14,0.38-0.21,0.8-0.21,1.28c0,0.48,0.07,0.9,0.2,1.27c0.13,0.37,0.31,0.68,0.55,0.93
		c0.23,0.25,0.51,0.45,0.82,0.58c0.31,0.13,0.65,0.2,1.03,0.2C218.62,48.71,218.95,48.64,219.26,48.5 M213.31,48.58
		c0.24-0.09,0.44-0.2,0.61-0.35c0.17-0.15,0.29-0.32,0.38-0.51c0.08-0.19,0.12-0.4,0.12-0.61c0-0.28-0.05-0.51-0.17-0.69
		c-0.11-0.19-0.26-0.34-0.43-0.47c-0.18-0.13-0.38-0.23-0.6-0.32c-0.22-0.09-0.44-0.17-0.67-0.26c-0.17-0.06-0.33-0.13-0.49-0.2
		c-0.16-0.07-0.31-0.14-0.43-0.23c-0.13-0.09-0.23-0.19-0.3-0.3c-0.08-0.11-0.11-0.25-0.11-0.42c0-0.13,0.03-0.25,0.08-0.38
		c0.05-0.13,0.13-0.24,0.24-0.33s0.24-0.17,0.4-0.23c0.16-0.06,0.35-0.09,0.57-0.09c0.29,0,0.55,0.05,0.76,0.15
		c0.21,0.1,0.42,0.22,0.61,0.36l0.29-0.37c-0.21-0.17-0.45-0.32-0.74-0.43c-0.29-0.11-0.58-0.17-0.89-0.17s-0.56,0.04-0.79,0.12
		c-0.23,0.08-0.42,0.19-0.58,0.33c-0.16,0.14-0.28,0.3-0.36,0.49c-0.08,0.19-0.12,0.38-0.12,0.59c0,0.25,0.05,0.45,0.16,0.62
		c0.11,0.17,0.25,0.32,0.42,0.44c0.17,0.12,0.37,0.23,0.59,0.31c0.22,0.09,0.43,0.17,0.65,0.25c0.17,0.06,0.33,0.13,0.49,0.2
		c0.16,0.07,0.31,0.15,0.45,0.25c0.13,0.1,0.24,0.21,0.33,0.35c0.08,0.13,0.12,0.29,0.12,0.46c0,0.3-0.11,0.57-0.34,0.79
		c-0.23,0.23-0.56,0.34-1.02,0.34c-0.41,0-0.76-0.07-1.03-0.21c-0.28-0.14-0.54-0.31-0.79-0.52l-0.31,0.39
		c0.25,0.21,0.56,0.4,0.91,0.55c0.36,0.15,0.75,0.23,1.18,0.23C212.8,48.71,213.07,48.67,213.31,48.58 M205.24,48.57v-4.3
		c0.35-0.36,0.66-0.62,0.94-0.8c0.28-0.18,0.59-0.27,0.93-0.27c0.47,0,0.8,0.14,1,0.43c0.2,0.29,0.3,0.74,0.3,1.35v3.59h0.52v-3.66
		c0-0.75-0.14-1.3-0.42-1.65c-0.28-0.36-0.71-0.53-1.31-0.53c-0.4,0-0.75,0.1-1.06,0.29c-0.31,0.19-0.61,0.44-0.91,0.74v-3.73h-0.52
		v8.54H205.24z M202.42,48.5c0.3-0.14,0.57-0.32,0.82-0.53l-0.27-0.37c-0.2,0.18-0.43,0.34-0.68,0.46
		c-0.26,0.13-0.54,0.19-0.84,0.19c-0.31,0-0.59-0.06-0.85-0.18c-0.26-0.12-0.48-0.3-0.65-0.52c-0.18-0.22-0.32-0.49-0.42-0.8
		c-0.1-0.31-0.15-0.65-0.15-1.02c0-0.38,0.05-0.72,0.16-1.03c0.11-0.31,0.25-0.58,0.44-0.8c0.19-0.23,0.4-0.4,0.65-0.52
		c0.25-0.12,0.52-0.18,0.81-0.18c0.28,0,0.53,0.06,0.75,0.17c0.22,0.12,0.42,0.26,0.61,0.43l0.31-0.37
		c-0.2-0.18-0.43-0.34-0.69-0.49c-0.26-0.14-0.59-0.21-0.99-0.21c-0.35,0-0.68,0.07-0.99,0.2c-0.31,0.13-0.59,0.33-0.83,0.58
		c-0.24,0.25-0.43,0.57-0.57,0.94c-0.14,0.38-0.21,0.8-0.21,1.28c0,0.48,0.07,0.9,0.2,1.27c0.13,0.37,0.31,0.68,0.55,0.93
		c0.23,0.25,0.51,0.45,0.82,0.58c0.31,0.13,0.66,0.2,1.03,0.2C201.78,48.71,202.11,48.64,202.42,48.5 M194.17,48.07
		c-0.25-0.12-0.46-0.3-0.64-0.52c-0.18-0.22-0.32-0.49-0.42-0.8c-0.1-0.31-0.15-0.65-0.15-1.02c0-0.38,0.05-0.72,0.15-1.03
		c0.1-0.31,0.24-0.58,0.42-0.8c0.18-0.23,0.39-0.4,0.64-0.52c0.24-0.12,0.51-0.18,0.8-0.18c0.29,0,0.55,0.06,0.8,0.18
		c0.25,0.12,0.46,0.3,0.64,0.52c0.18,0.23,0.32,0.49,0.42,0.8c0.1,0.31,0.15,0.65,0.15,1.03c0,0.37-0.05,0.71-0.15,1.02
		c-0.1,0.31-0.24,0.57-0.42,0.8c-0.18,0.22-0.39,0.39-0.64,0.52c-0.25,0.12-0.52,0.18-0.8,0.18
		C194.68,48.25,194.42,48.19,194.17,48.07 M195.95,48.51c0.31-0.13,0.59-0.33,0.82-0.58c0.23-0.25,0.42-0.56,0.56-0.93
		c0.14-0.37,0.21-0.79,0.21-1.27c0-0.48-0.07-0.9-0.21-1.28c-0.14-0.38-0.32-0.69-0.56-0.94c-0.23-0.25-0.51-0.45-0.82-0.58
		c-0.31-0.13-0.64-0.2-0.98-0.2c-0.34,0-0.67,0.07-0.98,0.2c-0.31,0.13-0.58,0.33-0.81,0.58c-0.23,0.25-0.42,0.57-0.56,0.94
		c-0.14,0.38-0.21,0.8-0.21,1.28c0,0.48,0.07,0.9,0.21,1.27c0.14,0.37,0.32,0.68,0.56,0.93c0.23,0.25,0.51,0.45,0.81,0.58
		c0.31,0.13,0.63,0.2,0.98,0.2C195.31,48.71,195.63,48.65,195.95,48.51 M186.03,48.57v-3.92h4.19v3.92h0.55v-7.83h-0.55v3.43h-4.19
		v-3.43h-0.55v7.83H186.03z M177.83,44.45c0.12-0.27,0.26-0.5,0.44-0.69c0.18-0.19,0.38-0.34,0.6-0.43c0.22-0.1,0.46-0.15,0.7-0.15
		c0.51,0,0.92,0.18,1.22,0.54c0.3,0.36,0.45,0.91,0.45,1.65h-3.64C177.64,45.02,177.71,44.72,177.83,44.45 M180.75,48.54
		c0.27-0.12,0.52-0.24,0.75-0.38l-0.21-0.4c-0.21,0.16-0.45,0.28-0.7,0.37c-0.25,0.09-0.53,0.14-0.84,0.14
		c-0.32,0-0.62-0.06-0.88-0.18c-0.26-0.12-0.49-0.29-0.67-0.51s-0.33-0.48-0.43-0.78s-0.16-0.64-0.17-0.99h4.11
		c0.02-0.07,0.02-0.14,0.02-0.21v-0.21c0-0.84-0.19-1.49-0.58-1.95c-0.39-0.46-0.92-0.69-1.6-0.69c-0.32,0-0.62,0.07-0.92,0.21
		c-0.3,0.14-0.56,0.34-0.8,0.59c-0.23,0.26-0.42,0.57-0.56,0.94c-0.14,0.37-0.21,0.79-0.21,1.26c0,0.47,0.07,0.89,0.21,1.25
		c0.14,0.37,0.33,0.68,0.57,0.94c0.24,0.26,0.52,0.45,0.84,0.59c0.32,0.13,0.66,0.2,1.03,0.2
		C180.13,48.71,180.48,48.65,180.75,48.54 M171.69,48.57v-4.3c0.35-0.36,0.66-0.62,0.94-0.8c0.28-0.18,0.59-0.27,0.93-0.27
		c0.47,0,0.8,0.14,1,0.43c0.2,0.29,0.3,0.74,0.3,1.35v3.59h0.52v-3.66c0-0.75-0.14-1.3-0.42-1.65c-0.28-0.36-0.71-0.53-1.31-0.53
		c-0.4,0-0.75,0.1-1.06,0.29c-0.31,0.19-0.61,0.44-0.91,0.74v-3.73h-0.52v8.54H171.69z M168.86,48.5c0.3-0.14,0.57-0.32,0.82-0.53
		l-0.27-0.37c-0.2,0.18-0.42,0.34-0.68,0.46c-0.26,0.13-0.54,0.19-0.84,0.19c-0.31,0-0.59-0.06-0.85-0.18
		c-0.26-0.12-0.48-0.3-0.65-0.52c-0.18-0.22-0.32-0.49-0.42-0.8c-0.1-0.31-0.15-0.65-0.15-1.02c0-0.38,0.05-0.72,0.16-1.03
		c0.11-0.31,0.25-0.58,0.44-0.8c0.19-0.23,0.4-0.4,0.65-0.52c0.25-0.12,0.52-0.18,0.81-0.18c0.28,0,0.53,0.06,0.75,0.17
		c0.22,0.12,0.42,0.26,0.61,0.43l0.31-0.37c-0.2-0.18-0.43-0.34-0.69-0.49c-0.26-0.14-0.59-0.21-0.99-0.21
		c-0.35,0-0.68,0.07-0.99,0.2c-0.31,0.13-0.59,0.33-0.83,0.58c-0.24,0.25-0.43,0.57-0.57,0.94c-0.14,0.38-0.21,0.8-0.21,1.28
		c0,0.48,0.07,0.9,0.2,1.27c0.13,0.37,0.31,0.68,0.55,0.93c0.23,0.25,0.51,0.45,0.82,0.58c0.31,0.13,0.65,0.2,1.03,0.2
		C168.23,48.71,168.56,48.64,168.86,48.5 M162.92,48.58c0.24-0.09,0.44-0.2,0.61-0.35c0.17-0.15,0.29-0.32,0.37-0.51
		c0.08-0.19,0.12-0.4,0.12-0.61c0-0.28-0.06-0.51-0.17-0.69s-0.26-0.34-0.43-0.47c-0.18-0.13-0.38-0.23-0.6-0.32
		c-0.22-0.09-0.44-0.17-0.67-0.26c-0.17-0.06-0.33-0.13-0.49-0.2c-0.16-0.07-0.31-0.14-0.43-0.23c-0.13-0.09-0.23-0.19-0.3-0.3
		c-0.08-0.11-0.11-0.25-0.11-0.42c0-0.13,0.02-0.25,0.08-0.38c0.05-0.13,0.13-0.24,0.24-0.33c0.11-0.1,0.24-0.17,0.4-0.23
		c0.16-0.06,0.35-0.09,0.57-0.09c0.29,0,0.55,0.05,0.76,0.15c0.21,0.1,0.42,0.22,0.61,0.36l0.29-0.37
		c-0.21-0.17-0.45-0.32-0.74-0.43s-0.58-0.17-0.89-0.17c-0.3,0-0.57,0.04-0.79,0.12c-0.23,0.08-0.42,0.19-0.58,0.33
		c-0.16,0.14-0.28,0.3-0.36,0.49s-0.12,0.38-0.12,0.59c0,0.25,0.05,0.45,0.16,0.62c0.11,0.17,0.25,0.32,0.42,0.44
		c0.17,0.12,0.37,0.23,0.59,0.31c0.22,0.09,0.43,0.17,0.65,0.25c0.17,0.06,0.33,0.13,0.49,0.2c0.16,0.07,0.31,0.15,0.45,0.25
		c0.13,0.1,0.24,0.21,0.33,0.35c0.08,0.13,0.12,0.29,0.12,0.46c0,0.3-0.11,0.57-0.34,0.79c-0.23,0.23-0.56,0.34-1.01,0.34
		c-0.41,0-0.76-0.07-1.03-0.21c-0.28-0.14-0.54-0.31-0.78-0.52l-0.31,0.39c0.25,0.21,0.56,0.4,0.92,0.55
		c0.36,0.15,0.75,0.23,1.18,0.23C162.41,48.71,162.68,48.67,162.92,48.58 M158.49,41.36c0.09-0.09,0.14-0.2,0.14-0.33
		c0-0.15-0.05-0.27-0.14-0.35c-0.09-0.08-0.2-0.13-0.34-0.13c-0.13,0-0.25,0.04-0.34,0.13s-0.14,0.2-0.14,0.35
		c0,0.13,0.05,0.25,0.14,0.33c0.09,0.09,0.2,0.13,0.34,0.13C158.29,41.49,158.4,41.45,158.49,41.36 M158.4,42.87h-0.52v5.7h0.52
		V42.87z M152.48,50.56c-0.33-0.22-0.49-0.51-0.49-0.87c0-0.21,0.06-0.41,0.18-0.62c0.12-0.21,0.31-0.4,0.57-0.58
		c0.15,0.04,0.29,0.06,0.42,0.08c0.13,0.01,0.23,0.02,0.29,0.02h1.22c0.43,0,0.76,0.07,0.98,0.2c0.23,0.13,0.34,0.35,0.34,0.67
		c0,0.18-0.05,0.36-0.15,0.53c-0.1,0.17-0.24,0.32-0.42,0.46c-0.18,0.13-0.4,0.24-0.67,0.33c-0.26,0.08-0.55,0.12-0.87,0.12
		C153.28,50.89,152.81,50.78,152.48,50.56 M153.18,46.22c-0.18-0.08-0.34-0.18-0.48-0.33c-0.14-0.14-0.25-0.31-0.33-0.51
		c-0.08-0.2-0.12-0.42-0.12-0.65c0-0.25,0.04-0.47,0.12-0.66c0.08-0.19,0.19-0.36,0.32-0.49c0.13-0.14,0.29-0.24,0.47-0.31
		c0.18-0.08,0.37-0.11,0.58-0.11c0.2,0,0.39,0.04,0.57,0.11c0.18,0.07,0.34,0.18,0.47,0.31c0.13,0.13,0.24,0.3,0.32,0.5
		c0.08,0.2,0.12,0.42,0.12,0.65c0,0.24-0.04,0.46-0.12,0.65c-0.08,0.2-0.19,0.37-0.32,0.51c-0.14,0.14-0.29,0.25-0.47,0.33
		c-0.18,0.08-0.37,0.11-0.57,0.11S153.36,46.3,153.18,46.22 M154.94,51.16c0.33-0.11,0.62-0.25,0.85-0.43
		c0.23-0.18,0.41-0.38,0.54-0.62c0.13-0.23,0.19-0.47,0.19-0.72c0-0.45-0.15-0.78-0.46-0.99c-0.3-0.21-0.78-0.32-1.42-0.32h-1.22
		c-0.43,0-0.72-0.07-0.87-0.22c-0.15-0.15-0.22-0.32-0.22-0.53c0-0.19,0.04-0.35,0.14-0.48s0.2-0.24,0.33-0.34
		c0.13,0.08,0.29,0.14,0.46,0.18c0.17,0.04,0.34,0.06,0.49,0.06c0.28,0,0.54-0.05,0.78-0.15c0.24-0.1,0.45-0.24,0.63-0.42
		c0.18-0.18,0.32-0.39,0.42-0.64c0.1-0.24,0.15-0.51,0.15-0.81c0-0.3-0.06-0.58-0.18-0.83c-0.12-0.25-0.27-0.45-0.45-0.61h1.33
		v-0.44h-1.94c-0.09-0.04-0.19-0.07-0.32-0.1c-0.13-0.03-0.27-0.04-0.43-0.04c-0.28,0-0.54,0.05-0.78,0.15
		c-0.24,0.1-0.46,0.24-0.64,0.42c-0.18,0.18-0.32,0.39-0.43,0.63c-0.1,0.25-0.15,0.52-0.15,0.81c0,0.35,0.07,0.66,0.22,0.93
		c0.15,0.27,0.31,0.48,0.49,0.64v0.05c-0.13,0.09-0.26,0.22-0.4,0.4c-0.14,0.18-0.21,0.39-0.21,0.65c0,0.22,0.05,0.41,0.14,0.56
		c0.09,0.15,0.21,0.27,0.36,0.36v0.05c-0.26,0.19-0.47,0.4-0.62,0.64c-0.15,0.24-0.23,0.48-0.23,0.74c0,0.48,0.21,0.87,0.63,1.15
		c0.42,0.28,0.99,0.43,1.71,0.43C154.24,51.32,154.61,51.26,154.94,51.16 M146.86,48.07c-0.24-0.12-0.46-0.3-0.64-0.52
		c-0.18-0.22-0.32-0.49-0.42-0.8c-0.1-0.31-0.15-0.65-0.15-1.02c0-0.38,0.05-0.72,0.15-1.03c0.1-0.31,0.24-0.58,0.42-0.8
		c0.18-0.23,0.39-0.4,0.64-0.52c0.25-0.12,0.51-0.18,0.8-0.18c0.29,0,0.55,0.06,0.8,0.18c0.25,0.12,0.46,0.3,0.64,0.52
		c0.18,0.23,0.32,0.49,0.42,0.8c0.1,0.31,0.15,0.65,0.15,1.03c0,0.37-0.05,0.71-0.15,1.02c-0.1,0.31-0.24,0.57-0.42,0.8
		c-0.18,0.22-0.39,0.39-0.64,0.52c-0.25,0.12-0.52,0.18-0.8,0.18C147.37,48.25,147.1,48.19,146.86,48.07 M148.64,48.51
		c0.31-0.13,0.59-0.33,0.82-0.58c0.23-0.25,0.42-0.56,0.56-0.93c0.14-0.37,0.21-0.79,0.21-1.27c0-0.48-0.07-0.9-0.21-1.28
		c-0.14-0.38-0.32-0.69-0.56-0.94c-0.23-0.25-0.51-0.45-0.82-0.58c-0.31-0.13-0.64-0.2-0.98-0.2c-0.34,0-0.66,0.07-0.97,0.2
		c-0.31,0.13-0.58,0.33-0.81,0.58c-0.23,0.25-0.42,0.57-0.56,0.94c-0.14,0.38-0.21,0.8-0.21,1.28c0,0.48,0.07,0.9,0.21,1.27
		c0.14,0.37,0.32,0.68,0.56,0.93c0.23,0.25,0.51,0.45,0.81,0.58c0.31,0.13,0.63,0.2,0.97,0.2C148,48.71,148.32,48.65,148.64,48.51
		 M140.31,50.56c-0.33-0.22-0.49-0.51-0.49-0.87c0-0.21,0.06-0.41,0.18-0.62c0.12-0.21,0.31-0.4,0.57-0.58
		c0.15,0.04,0.29,0.06,0.42,0.08c0.13,0.01,0.23,0.02,0.29,0.02h1.22c0.43,0,0.75,0.07,0.98,0.2c0.23,0.13,0.34,0.35,0.34,0.67
		c0,0.18-0.05,0.36-0.15,0.53c-0.1,0.17-0.24,0.32-0.42,0.46c-0.18,0.13-0.4,0.24-0.67,0.33c-0.26,0.08-0.55,0.12-0.87,0.12
		C141.11,50.89,140.64,50.78,140.31,50.56 M141.01,46.22c-0.18-0.08-0.34-0.18-0.47-0.33c-0.14-0.14-0.25-0.31-0.33-0.51
		c-0.08-0.2-0.12-0.42-0.12-0.65c0-0.25,0.04-0.47,0.12-0.66c0.08-0.19,0.19-0.36,0.32-0.49c0.13-0.14,0.29-0.24,0.47-0.31
		c0.18-0.08,0.37-0.11,0.58-0.11c0.2,0,0.39,0.04,0.57,0.11c0.18,0.07,0.34,0.18,0.47,0.31c0.13,0.13,0.24,0.3,0.32,0.5
		c0.08,0.2,0.12,0.42,0.12,0.65c0,0.24-0.04,0.46-0.12,0.65c-0.08,0.2-0.19,0.37-0.32,0.51c-0.14,0.14-0.29,0.25-0.47,0.33
		c-0.18,0.08-0.37,0.11-0.56,0.11C141.37,46.34,141.19,46.3,141.01,46.22 M142.77,51.16c0.33-0.11,0.62-0.25,0.85-0.43
		c0.23-0.18,0.41-0.38,0.54-0.62c0.13-0.23,0.19-0.47,0.19-0.72c0-0.45-0.15-0.78-0.46-0.99c-0.31-0.21-0.78-0.32-1.42-0.32h-1.22
		c-0.43,0-0.72-0.07-0.87-0.22c-0.15-0.15-0.23-0.32-0.23-0.53c0-0.19,0.05-0.35,0.14-0.48s0.2-0.24,0.33-0.34
		c0.13,0.08,0.29,0.14,0.46,0.18c0.17,0.04,0.33,0.06,0.49,0.06c0.28,0,0.54-0.05,0.78-0.15c0.24-0.1,0.45-0.24,0.63-0.42
		c0.18-0.18,0.32-0.39,0.42-0.64c0.1-0.24,0.15-0.51,0.15-0.81c0-0.3-0.06-0.58-0.18-0.83c-0.12-0.25-0.27-0.45-0.45-0.61h1.33
		v-0.44h-1.94c-0.09-0.04-0.19-0.07-0.32-0.1c-0.13-0.03-0.27-0.04-0.43-0.04c-0.28,0-0.54,0.05-0.78,0.15
		c-0.25,0.1-0.46,0.24-0.64,0.42c-0.18,0.18-0.32,0.39-0.43,0.63c-0.1,0.25-0.15,0.52-0.15,0.81c0,0.35,0.07,0.66,0.22,0.93
		c0.15,0.27,0.31,0.48,0.49,0.64v0.05c-0.13,0.09-0.26,0.22-0.4,0.4c-0.14,0.18-0.21,0.39-0.21,0.65c0,0.22,0.05,0.41,0.14,0.56
		c0.1,0.15,0.21,0.27,0.36,0.36v0.05c-0.26,0.19-0.47,0.4-0.62,0.64c-0.15,0.24-0.23,0.48-0.23,0.74c0,0.48,0.21,0.87,0.63,1.15
		c0.42,0.28,0.99,0.43,1.71,0.43C142.07,51.32,142.44,51.26,142.77,51.16 M134.81,48.2c-0.15-0.04-0.27-0.11-0.39-0.2
		c-0.11-0.09-0.2-0.21-0.26-0.35c-0.06-0.14-0.1-0.32-0.1-0.52c0-0.22,0.05-0.42,0.16-0.6c0.11-0.18,0.28-0.35,0.53-0.49
		c0.24-0.14,0.57-0.26,0.97-0.37c0.4-0.1,0.9-0.19,1.48-0.26v1.94c-0.36,0.3-0.68,0.53-0.99,0.69c-0.3,0.16-0.62,0.24-0.95,0.24
		C135.12,48.26,134.96,48.24,134.81,48.2 M136.26,48.45c0.34-0.18,0.65-0.38,0.94-0.61h0.04l0.05,0.74h0.45v-3.65
		c0-0.31-0.03-0.6-0.1-0.86c-0.06-0.26-0.17-0.5-0.31-0.69c-0.14-0.2-0.33-0.35-0.56-0.47c-0.23-0.12-0.51-0.17-0.84-0.17
		c-0.23,0-0.45,0.03-0.67,0.08c-0.21,0.05-0.41,0.11-0.59,0.18c-0.18,0.07-0.35,0.15-0.49,0.24c-0.15,0.09-0.27,0.17-0.37,0.24
		l0.24,0.39c0.2-0.14,0.46-0.29,0.77-0.44c0.32-0.15,0.67-0.23,1.05-0.23c0.29,0,0.51,0.05,0.69,0.16c0.17,0.11,0.31,0.25,0.42,0.42
		c0.1,0.17,0.17,0.36,0.2,0.58c0.03,0.22,0.05,0.43,0.05,0.65c-1.27,0.14-2.21,0.38-2.8,0.71c-0.59,0.33-0.88,0.81-0.88,1.44
		c0,0.27,0.04,0.5,0.13,0.7c0.09,0.2,0.21,0.36,0.36,0.49c0.15,0.13,0.32,0.22,0.52,0.29c0.2,0.06,0.41,0.1,0.64,0.1
		C135.57,48.71,135.93,48.62,136.26,48.45 M128.68,48.07c-0.23-0.12-0.43-0.29-0.59-0.51c-0.16-0.22-0.28-0.48-0.36-0.79
		c-0.08-0.31-0.12-0.65-0.12-1.03c0-0.36,0.05-0.69,0.15-1c0.1-0.31,0.24-0.58,0.42-0.81c0.18-0.23,0.39-0.4,0.64-0.53
		c0.24-0.13,0.51-0.2,0.8-0.2c0.28,0,0.55,0.06,0.81,0.17c0.27,0.11,0.55,0.3,0.85,0.57v3.39c-0.3,0.3-0.6,0.53-0.88,0.69
		c-0.29,0.16-0.59,0.24-0.91,0.24C129.18,48.25,128.92,48.19,128.68,48.07 M130.45,48.45c0.31-0.18,0.58-0.38,0.81-0.61h0.04
		l0.05,0.74h0.45v-8.54h-0.52v2.35l0.02,1.05c-0.29-0.22-0.56-0.39-0.81-0.52c-0.26-0.12-0.56-0.18-0.91-0.18
		c-0.34,0-0.66,0.07-0.97,0.21c-0.3,0.14-0.57,0.34-0.81,0.6c-0.23,0.26-0.42,0.58-0.55,0.95c-0.13,0.37-0.2,0.79-0.2,1.25
		c0,0.97,0.21,1.7,0.64,2.22c0.43,0.51,1,0.77,1.72,0.77C129.79,48.71,130.14,48.62,130.45,48.45 M124.85,41.34
		c0.08-0.08,0.12-0.19,0.12-0.31c0-0.13-0.04-0.23-0.12-0.31c-0.08-0.08-0.19-0.12-0.31-0.12c-0.13,0-0.23,0.04-0.32,0.12
		c-0.08,0.08-0.12,0.19-0.12,0.31c0,0.13,0.04,0.23,0.12,0.31c0.08,0.08,0.19,0.12,0.32,0.12
		C124.66,41.47,124.77,41.42,124.85,41.34 M122.73,41.34c0.08-0.08,0.12-0.19,0.12-0.31c0-0.13-0.04-0.23-0.12-0.31
		c-0.08-0.08-0.19-0.12-0.32-0.12c-0.13,0-0.23,0.04-0.31,0.12c-0.08,0.08-0.12,0.19-0.12,0.31c0,0.13,0.04,0.23,0.12,0.31
		c0.08,0.08,0.19,0.12,0.31,0.12C122.55,41.47,122.65,41.42,122.73,41.34 M122.43,48.2c-0.15-0.04-0.28-0.11-0.39-0.2
		c-0.11-0.09-0.2-0.21-0.26-0.35c-0.06-0.14-0.1-0.32-0.1-0.52c0-0.22,0.05-0.42,0.16-0.6c0.11-0.18,0.28-0.35,0.53-0.49
		c0.25-0.14,0.57-0.26,0.97-0.37s0.9-0.19,1.49-0.26v1.94c-0.36,0.3-0.68,0.53-0.99,0.69c-0.3,0.16-0.62,0.24-0.95,0.24
		C122.73,48.26,122.57,48.24,122.43,48.2 M123.88,48.45c0.34-0.18,0.65-0.38,0.94-0.61h0.04l0.05,0.74h0.45v-3.65
		c0-0.31-0.03-0.6-0.1-0.86c-0.06-0.26-0.17-0.5-0.31-0.69c-0.14-0.2-0.33-0.35-0.56-0.47c-0.23-0.12-0.51-0.17-0.84-0.17
		c-0.23,0-0.45,0.03-0.67,0.08c-0.21,0.05-0.41,0.11-0.59,0.18c-0.18,0.07-0.35,0.15-0.49,0.24c-0.15,0.09-0.27,0.17-0.38,0.24
		l0.24,0.39c0.2-0.14,0.45-0.29,0.77-0.44c0.32-0.15,0.67-0.23,1.05-0.23c0.28,0,0.51,0.05,0.69,0.16c0.17,0.11,0.31,0.25,0.42,0.42
		c0.1,0.17,0.17,0.36,0.2,0.58c0.03,0.22,0.05,0.43,0.05,0.65c-1.28,0.14-2.21,0.38-2.8,0.71c-0.59,0.33-0.89,0.81-0.89,1.44
		c0,0.27,0.04,0.5,0.13,0.7c0.09,0.2,0.21,0.36,0.36,0.49c0.15,0.13,0.32,0.22,0.52,0.29c0.2,0.06,0.41,0.1,0.64,0.1
		C123.18,48.71,123.54,48.62,123.88,48.45 M115.75,41.2h1.29c0.81,0,1.41,0.12,1.81,0.37c0.4,0.24,0.6,0.7,0.6,1.35
		c0,0.64-0.19,1.1-0.58,1.39c-0.39,0.29-0.98,0.43-1.78,0.43h-1.34V41.2z M115.75,48.57v-3.36h1.47c0.88,0,1.56-0.19,2.06-0.56
		c0.49-0.38,0.74-0.95,0.74-1.72c0-0.4-0.07-0.74-0.2-1.02c-0.13-0.28-0.32-0.5-0.56-0.68c-0.24-0.17-0.54-0.3-0.89-0.37
		c-0.35-0.08-0.75-0.11-1.19-0.11h-1.97v7.83H115.75z"/>
	<path d="M221.26,33.72v-4.3c0.35-0.36,0.66-0.62,0.94-0.8c0.28-0.18,0.59-0.27,0.93-0.27c0.47,0,0.8,0.14,1,0.43
		c0.2,0.29,0.3,0.74,0.3,1.35v3.59h0.52v-3.66c0-0.74-0.14-1.29-0.42-1.65c-0.28-0.36-0.71-0.54-1.31-0.54
		c-0.4,0-0.75,0.1-1.06,0.29c-0.31,0.19-0.61,0.44-0.9,0.73h-0.03l-0.05-0.88h-0.45v5.7H221.26z M215.61,33.21
		c-0.24-0.12-0.46-0.3-0.64-0.52c-0.18-0.22-0.32-0.49-0.42-0.8c-0.1-0.31-0.15-0.65-0.15-1.02c0-0.38,0.05-0.72,0.15-1.03
		c0.1-0.31,0.24-0.58,0.42-0.8c0.18-0.23,0.39-0.4,0.64-0.52c0.25-0.12,0.51-0.18,0.8-0.18c0.29,0,0.55,0.06,0.8,0.18
		c0.25,0.12,0.46,0.3,0.64,0.52c0.18,0.23,0.32,0.49,0.42,0.8c0.1,0.31,0.15,0.65,0.15,1.03c0,0.37-0.05,0.71-0.15,1.02
		c-0.1,0.31-0.24,0.57-0.42,0.8c-0.18,0.22-0.39,0.39-0.64,0.52c-0.25,0.12-0.52,0.18-0.8,0.18
		C216.12,33.4,215.85,33.34,215.61,33.21 M217.38,33.66c0.31-0.14,0.59-0.33,0.82-0.58c0.23-0.25,0.42-0.56,0.56-0.93
		c0.14-0.37,0.21-0.79,0.21-1.27c0-0.47-0.07-0.9-0.21-1.28c-0.14-0.38-0.33-0.69-0.56-0.94c-0.23-0.25-0.51-0.45-0.82-0.58
		c-0.31-0.13-0.64-0.2-0.98-0.2c-0.34,0-0.66,0.07-0.97,0.2c-0.31,0.13-0.58,0.33-0.81,0.58c-0.23,0.25-0.42,0.57-0.56,0.94
		c-0.14,0.38-0.21,0.8-0.21,1.28c0,0.48,0.07,0.9,0.21,1.27c0.14,0.37,0.32,0.68,0.56,0.93c0.23,0.25,0.51,0.45,0.81,0.58
		c0.31,0.13,0.63,0.2,0.97,0.2C216.74,33.86,217.07,33.79,217.38,33.66 M212.18,26.51c0.09-0.09,0.14-0.2,0.14-0.33
		c0-0.15-0.05-0.27-0.14-0.35s-0.2-0.12-0.34-0.12c-0.14,0-0.25,0.04-0.34,0.12s-0.14,0.2-0.14,0.35c0,0.13,0.05,0.25,0.14,0.33
		c0.09,0.09,0.2,0.13,0.34,0.13C211.97,26.64,212.08,26.59,212.18,26.51 M212.09,28.02h-0.52v5.7h0.52V28.02z M209.67,33.8
		c0.17-0.04,0.33-0.09,0.5-0.15l-0.14-0.43c-0.1,0.05-0.22,0.09-0.35,0.12c-0.13,0.03-0.25,0.05-0.36,0.05
		c-0.2,0-0.36-0.03-0.48-0.09c-0.12-0.06-0.22-0.14-0.29-0.25c-0.07-0.11-0.12-0.23-0.15-0.38c-0.03-0.15-0.04-0.31-0.04-0.49v-3.72
		H210v-0.45h-1.65v-1.65h-0.45l-0.07,1.65l-0.9,0.05v0.4h0.89v3.67c0,0.25,0.02,0.49,0.07,0.7c0.04,0.21,0.12,0.4,0.23,0.55
		c0.11,0.15,0.26,0.27,0.44,0.35s0.41,0.12,0.69,0.12C209.36,33.86,209.5,33.84,209.67,33.8 M202.73,33.35
		c-0.15-0.04-0.27-0.11-0.39-0.2c-0.11-0.09-0.2-0.21-0.26-0.35c-0.06-0.14-0.1-0.32-0.1-0.52c0-0.22,0.05-0.42,0.16-0.61
		c0.11-0.18,0.28-0.34,0.53-0.49c0.24-0.14,0.57-0.26,0.97-0.37c0.4-0.1,0.9-0.19,1.48-0.26v1.94c-0.36,0.3-0.68,0.53-0.99,0.69
		c-0.3,0.16-0.62,0.24-0.95,0.24C203.04,33.41,202.88,33.39,202.73,33.35 M204.18,33.59c0.34-0.18,0.65-0.38,0.94-0.61h0.04
		l0.05,0.74h0.45v-3.65c0-0.31-0.03-0.6-0.1-0.86c-0.06-0.26-0.17-0.5-0.31-0.69c-0.14-0.2-0.33-0.35-0.56-0.47
		c-0.23-0.11-0.51-0.17-0.84-0.17c-0.23,0-0.45,0.03-0.67,0.08c-0.21,0.05-0.41,0.11-0.59,0.18c-0.18,0.07-0.35,0.15-0.49,0.24
		c-0.15,0.09-0.27,0.17-0.37,0.24l0.24,0.39c0.2-0.14,0.45-0.29,0.77-0.44c0.32-0.15,0.67-0.23,1.05-0.23
		c0.29,0,0.51,0.05,0.69,0.16c0.17,0.11,0.31,0.25,0.42,0.42c0.1,0.17,0.17,0.36,0.2,0.58c0.03,0.22,0.05,0.43,0.05,0.65
		c-1.27,0.14-2.21,0.38-2.8,0.71c-0.59,0.33-0.88,0.81-0.88,1.44c0,0.27,0.04,0.5,0.13,0.7c0.09,0.2,0.21,0.36,0.36,0.49
		c0.15,0.13,0.32,0.22,0.52,0.28c0.2,0.06,0.41,0.1,0.64,0.1C203.49,33.86,203.85,33.77,204.18,33.59 M199.4,33.65
		c0.3-0.14,0.57-0.32,0.82-0.53l-0.27-0.37c-0.2,0.18-0.43,0.34-0.68,0.46c-0.26,0.13-0.54,0.19-0.84,0.19
		c-0.31,0-0.59-0.06-0.85-0.18c-0.26-0.12-0.48-0.3-0.65-0.52c-0.18-0.22-0.32-0.49-0.42-0.8c-0.1-0.31-0.15-0.65-0.15-1.02
		c0-0.38,0.05-0.72,0.16-1.03c0.11-0.31,0.25-0.58,0.44-0.8c0.19-0.23,0.4-0.4,0.65-0.52c0.25-0.12,0.52-0.18,0.81-0.18
		c0.28,0,0.53,0.06,0.75,0.17c0.22,0.11,0.42,0.26,0.61,0.43l0.31-0.37c-0.2-0.18-0.43-0.34-0.69-0.49
		c-0.26-0.14-0.59-0.21-0.99-0.21c-0.35,0-0.68,0.07-0.99,0.2c-0.31,0.13-0.59,0.33-0.83,0.58c-0.24,0.25-0.43,0.57-0.57,0.94
		c-0.14,0.38-0.21,0.8-0.21,1.28c0,0.48,0.07,0.9,0.2,1.27c0.13,0.37,0.31,0.68,0.55,0.93c0.23,0.25,0.51,0.45,0.82,0.58
		c0.31,0.13,0.65,0.2,1.03,0.2C198.77,33.86,199.1,33.79,199.4,33.65 M192.64,33.56c0.31-0.2,0.6-0.46,0.88-0.8h0.02l0.06,0.95h0.44
		v-5.7h-0.52v4.21c-0.33,0.4-0.64,0.7-0.92,0.88c-0.28,0.19-0.59,0.28-0.93,0.28c-0.46,0-0.79-0.14-0.99-0.43s-0.3-0.74-0.3-1.35
		v-3.59h-0.52v3.66c0,0.75,0.14,1.3,0.42,1.65c0.28,0.36,0.71,0.53,1.31,0.53C191.98,33.86,192.33,33.76,192.64,33.56 M184.64,33.21
		c-0.23-0.12-0.43-0.29-0.59-0.51c-0.16-0.22-0.28-0.48-0.36-0.79c-0.08-0.31-0.12-0.65-0.12-1.03c0-0.36,0.05-0.69,0.15-1
		s0.24-0.58,0.42-0.81c0.18-0.22,0.39-0.4,0.64-0.53c0.25-0.13,0.51-0.2,0.8-0.2c0.28,0,0.55,0.06,0.81,0.17
		c0.26,0.11,0.55,0.3,0.85,0.57v3.39c-0.3,0.3-0.6,0.53-0.89,0.69c-0.29,0.16-0.59,0.24-0.91,0.24
		C185.14,33.4,184.87,33.34,184.64,33.21 M186.41,33.59c0.31-0.18,0.58-0.38,0.81-0.61h0.04l0.05,0.74h0.45v-8.54h-0.52v2.35
		l0.02,1.04c-0.28-0.22-0.56-0.39-0.81-0.52c-0.26-0.12-0.56-0.18-0.91-0.18c-0.34,0-0.66,0.07-0.97,0.21
		c-0.3,0.14-0.58,0.34-0.81,0.6c-0.23,0.26-0.42,0.58-0.55,0.95c-0.13,0.37-0.2,0.79-0.2,1.25c0,0.97,0.21,1.71,0.64,2.22
		c0.43,0.51,1,0.77,1.72,0.77C185.75,33.86,186.1,33.77,186.41,33.59 M181.89,33.72v-0.47h-3.86V29.8h3.14v-0.48h-3.14v-2.96h3.74
		v-0.47h-4.29v7.83H181.89z M172.53,33.72v-5.25h1.32v-0.45h-1.32v-1.24c0-0.42,0.07-0.74,0.22-0.96c0.15-0.22,0.37-0.33,0.67-0.33
		c0.11,0,0.22,0.01,0.34,0.04c0.11,0.02,0.23,0.07,0.35,0.13l0.14-0.43c-0.28-0.13-0.56-0.19-0.83-0.19c-0.45,0-0.8,0.14-1.05,0.43
		c-0.24,0.29-0.37,0.71-0.37,1.28v1.27l-0.78,0.05v0.4h0.78v5.25H172.53z M166.84,33.21c-0.24-0.12-0.46-0.3-0.64-0.52
		c-0.18-0.22-0.32-0.49-0.42-0.8c-0.1-0.31-0.15-0.65-0.15-1.02c0-0.38,0.05-0.72,0.15-1.03c0.1-0.31,0.24-0.58,0.42-0.8
		c0.18-0.23,0.39-0.4,0.64-0.52c0.25-0.12,0.51-0.18,0.8-0.18c0.29,0,0.55,0.06,0.8,0.18c0.25,0.12,0.46,0.3,0.64,0.52
		c0.18,0.23,0.32,0.49,0.42,0.8c0.1,0.31,0.15,0.65,0.15,1.03c0,0.37-0.05,0.71-0.15,1.02c-0.1,0.31-0.24,0.57-0.42,0.8
		c-0.18,0.22-0.39,0.39-0.64,0.52c-0.25,0.12-0.52,0.18-0.8,0.18C167.35,33.4,167.09,33.34,166.84,33.21 M168.62,33.66
		c0.31-0.14,0.59-0.33,0.82-0.58c0.23-0.25,0.42-0.56,0.56-0.93c0.14-0.37,0.21-0.79,0.21-1.27c0-0.47-0.07-0.9-0.21-1.28
		c-0.14-0.38-0.32-0.69-0.56-0.94c-0.23-0.25-0.51-0.45-0.82-0.58c-0.31-0.13-0.64-0.2-0.98-0.2c-0.34,0-0.66,0.07-0.97,0.2
		c-0.31,0.13-0.58,0.33-0.81,0.58c-0.23,0.25-0.42,0.57-0.56,0.94c-0.14,0.38-0.21,0.8-0.21,1.28c0,0.48,0.07,0.9,0.21,1.27
		c0.14,0.37,0.32,0.68,0.56,0.93c0.23,0.25,0.51,0.45,0.81,0.58c0.31,0.13,0.63,0.2,0.97,0.2C167.98,33.86,168.3,33.79,168.62,33.66
		 M159.05,36.16c0.2-0.11,0.38-0.25,0.54-0.42c0.15-0.17,0.29-0.38,0.4-0.61c0.11-0.23,0.21-0.46,0.29-0.7l2.26-6.42h-0.53
		l-1.22,3.59c-0.08,0.24-0.17,0.5-0.26,0.78s-0.18,0.56-0.27,0.81h-0.05c-0.11-0.25-0.22-0.52-0.33-0.81s-0.2-0.55-0.29-0.78
		l-1.38-3.59h-0.57l2.34,5.81l-0.15,0.5c-0.14,0.43-0.33,0.8-0.57,1.08c-0.24,0.28-0.54,0.43-0.89,0.43c-0.09,0-0.17-0.01-0.25-0.03
		c-0.08-0.02-0.15-0.04-0.21-0.07l-0.12,0.46c0.17,0.08,0.37,0.12,0.58,0.12C158.62,36.32,158.85,36.27,159.05,36.16 M156.32,33.8
		c0.17-0.04,0.33-0.09,0.5-0.15l-0.14-0.43c-0.1,0.05-0.22,0.09-0.35,0.12c-0.13,0.03-0.25,0.05-0.36,0.05
		c-0.2,0-0.36-0.03-0.48-0.09c-0.12-0.06-0.22-0.14-0.29-0.25c-0.07-0.11-0.12-0.23-0.15-0.38c-0.03-0.15-0.04-0.31-0.04-0.49v-3.72
		h1.65v-0.45h-1.65v-1.65h-0.45l-0.07,1.65l-0.9,0.05v0.4h0.89v3.67c0,0.25,0.02,0.49,0.07,0.7c0.04,0.21,0.12,0.4,0.23,0.55
		c0.11,0.15,0.26,0.27,0.44,0.35s0.41,0.12,0.69,0.12C156.02,33.86,156.16,33.84,156.32,33.8 M152.16,26.51
		c0.09-0.09,0.14-0.2,0.14-0.33c0-0.15-0.05-0.27-0.14-0.35s-0.2-0.12-0.34-0.12c-0.14,0-0.25,0.04-0.34,0.12s-0.14,0.2-0.14,0.35
		c0,0.13,0.05,0.25,0.14,0.33c0.09,0.09,0.2,0.13,0.34,0.13C151.96,26.64,152.07,26.59,152.16,26.51 M152.08,28.02h-0.52v5.7h0.52
		V28.02z M148.9,33.73c0.24-0.09,0.44-0.2,0.61-0.35c0.17-0.15,0.29-0.32,0.38-0.51c0.08-0.19,0.12-0.4,0.12-0.61
		c0-0.28-0.05-0.51-0.17-0.7c-0.11-0.19-0.26-0.34-0.43-0.47c-0.18-0.13-0.38-0.23-0.6-0.32c-0.22-0.09-0.44-0.17-0.67-0.26
		c-0.17-0.06-0.33-0.13-0.49-0.2c-0.16-0.07-0.31-0.15-0.43-0.23c-0.13-0.09-0.23-0.19-0.3-0.3c-0.07-0.11-0.11-0.26-0.11-0.42
		c0-0.13,0.03-0.25,0.08-0.38c0.05-0.13,0.13-0.24,0.24-0.33c0.11-0.1,0.24-0.17,0.4-0.23c0.16-0.06,0.35-0.09,0.57-0.09
		c0.29,0,0.55,0.05,0.76,0.15c0.21,0.1,0.42,0.22,0.61,0.36l0.29-0.37c-0.21-0.17-0.45-0.32-0.74-0.43s-0.58-0.17-0.89-0.17
		s-0.56,0.04-0.79,0.12c-0.23,0.08-0.42,0.19-0.58,0.33c-0.16,0.14-0.28,0.3-0.36,0.49c-0.08,0.19-0.12,0.38-0.12,0.59
		c0,0.25,0.05,0.45,0.16,0.62c0.11,0.17,0.25,0.32,0.42,0.44c0.17,0.12,0.37,0.23,0.59,0.31c0.22,0.09,0.43,0.17,0.65,0.25
		c0.17,0.06,0.33,0.13,0.49,0.2c0.16,0.07,0.31,0.15,0.45,0.25s0.24,0.21,0.33,0.35c0.08,0.13,0.12,0.29,0.12,0.46
		c0,0.3-0.11,0.57-0.34,0.79c-0.23,0.23-0.56,0.34-1.02,0.34c-0.41,0-0.76-0.07-1.03-0.21c-0.28-0.14-0.54-0.31-0.78-0.52
		l-0.31,0.39c0.25,0.21,0.56,0.4,0.92,0.55c0.36,0.15,0.75,0.23,1.18,0.23C148.39,33.86,148.66,33.82,148.9,33.73 M143.14,33.72
		v-3.89c0.22-0.54,0.47-0.92,0.76-1.14c0.28-0.22,0.55-0.33,0.8-0.33c0.11,0,0.2,0.01,0.27,0.02c0.07,0.01,0.15,0.04,0.25,0.08
		l0.12-0.47c-0.1-0.05-0.19-0.08-0.27-0.1c-0.09-0.02-0.19-0.02-0.3-0.02c-0.34,0-0.65,0.11-0.92,0.33s-0.51,0.51-0.7,0.87h-0.04
		l-0.05-1.06h-0.45v5.7H143.14z M137.05,29.6c0.11-0.27,0.26-0.5,0.44-0.69c0.18-0.19,0.38-0.33,0.6-0.43
		c0.22-0.1,0.46-0.15,0.7-0.15c0.51,0,0.92,0.18,1.22,0.54c0.3,0.36,0.45,0.91,0.45,1.65h-3.64
		C136.86,30.17,136.93,29.87,137.05,29.6 M139.97,33.68c0.27-0.12,0.52-0.24,0.75-0.38l-0.21-0.4c-0.21,0.16-0.45,0.28-0.7,0.37
		c-0.25,0.09-0.53,0.14-0.84,0.14c-0.33,0-0.62-0.06-0.88-0.18c-0.26-0.12-0.48-0.29-0.67-0.51c-0.19-0.22-0.33-0.48-0.43-0.78
		c-0.1-0.31-0.16-0.64-0.17-0.99h4.11c0.02-0.07,0.02-0.14,0.02-0.21v-0.21c0-0.84-0.19-1.49-0.58-1.95
		c-0.39-0.46-0.92-0.69-1.6-0.69c-0.32,0-0.62,0.07-0.92,0.21c-0.3,0.14-0.56,0.34-0.8,0.59c-0.23,0.26-0.42,0.57-0.56,0.94
		c-0.14,0.37-0.21,0.79-0.21,1.26c0,0.47,0.07,0.89,0.21,1.25c0.14,0.37,0.33,0.68,0.57,0.94c0.24,0.26,0.52,0.45,0.84,0.59
		c0.32,0.13,0.66,0.2,1.03,0.2C139.35,33.86,139.7,33.8,139.97,33.68 M133.36,33.72l2.12-5.7h-0.53l-1.28,3.58
		c-0.1,0.28-0.19,0.56-0.29,0.83s-0.2,0.55-0.29,0.81h-0.05c-0.09-0.26-0.18-0.53-0.29-0.81c-0.1-0.28-0.2-0.55-0.29-0.83
		l-1.28-3.58h-0.57l2.14,5.7H133.36z M129.25,26.51c0.09-0.09,0.14-0.2,0.14-0.33c0-0.15-0.05-0.27-0.14-0.35
		c-0.09-0.08-0.2-0.12-0.34-0.12c-0.14,0-0.25,0.04-0.34,0.12c-0.09,0.08-0.14,0.2-0.14,0.35c0,0.13,0.05,0.25,0.14,0.33
		c0.09,0.09,0.2,0.13,0.34,0.13C129.04,26.64,129.15,26.59,129.25,26.51 M129.16,28.02h-0.52v5.7h0.52V28.02z M122.95,33.72v-4.3
		c0.35-0.36,0.66-0.62,0.94-0.8c0.28-0.18,0.59-0.27,0.93-0.27c0.47,0,0.8,0.14,1,0.43c0.2,0.29,0.3,0.74,0.3,1.35v3.59h0.52v-3.66
		c0-0.74-0.14-1.29-0.42-1.65c-0.28-0.36-0.71-0.54-1.31-0.54c-0.4,0-0.75,0.1-1.06,0.29c-0.31,0.19-0.61,0.44-0.9,0.73h-0.04
		l-0.05-0.88h-0.45v5.7H122.95z M118.8,33.71c0.32-0.1,0.6-0.27,0.84-0.51c0.25-0.24,0.44-0.56,0.59-0.97
		c0.15-0.4,0.22-0.91,0.22-1.52v-4.82h-0.51v4.76c0,0.52-0.06,0.96-0.18,1.3c-0.12,0.34-0.28,0.62-0.47,0.83s-0.42,0.36-0.68,0.45
		c-0.26,0.09-0.53,0.13-0.81,0.13c-0.28,0-0.54-0.04-0.79-0.13c-0.25-0.09-0.47-0.24-0.66-0.45s-0.34-0.49-0.46-0.83
		c-0.11-0.34-0.17-0.78-0.17-1.3v-4.76h-0.55v4.82c0,0.61,0.07,1.12,0.22,1.52c0.15,0.4,0.34,0.73,0.59,0.97
		c0.24,0.24,0.53,0.41,0.84,0.51c0.32,0.1,0.64,0.15,0.97,0.15C118.15,33.86,118.48,33.81,118.8,33.71"/>
	<path class="st0" d="M210.11,64.33c0.43-0.37,0.93-0.56,1.5-0.56c0.73,0,1.25,0.21,1.56,0.63c0.31,0.42,0.46,0.97,0.46,1.65h-4.35
		C209.41,65.28,209.69,64.71,210.11,64.33 M214.18,73.33c0.75-0.24,1.44-0.57,2.05-1l-1.19-2.17c-0.88,0.53-1.74,0.8-2.6,0.8
		c-0.81,0-1.5-0.21-2.05-0.62c-0.56-0.41-0.92-1.06-1.08-1.93h7.22c0.03-0.15,0.06-0.37,0.1-0.66c0.03-0.29,0.05-0.6,0.05-0.92
		c0-0.83-0.11-1.59-0.32-2.3c-0.21-0.7-0.53-1.32-0.96-1.84c-0.43-0.52-0.96-0.92-1.61-1.22c-0.64-0.29-1.39-0.44-2.25-0.44
		c-0.73,0-1.43,0.15-2.12,0.44c-0.68,0.29-1.29,0.71-1.81,1.25c-0.53,0.54-0.95,1.21-1.28,1.99c-0.32,0.79-0.49,1.67-0.49,2.64
		c0,1.01,0.15,1.9,0.46,2.68c0.31,0.78,0.74,1.44,1.29,1.98s1.2,0.96,1.95,1.24c0.75,0.28,1.55,0.43,2.41,0.43
		C212.68,73.7,213.42,73.58,214.18,73.33 M184.66,73.18c0.59-0.35,1.15-0.83,1.67-1.45h0.07l0.27,1.68h2.92V61.34h-3.57v7.98
		c-0.36,0.47-0.69,0.81-1,1.02c-0.31,0.21-0.69,0.32-1.14,0.32c-0.52,0-0.9-0.16-1.14-0.49c-0.24-0.32-0.37-0.92-0.37-1.8v-7.03
		h-3.57v7.49c0,1.53,0.29,2.72,0.89,3.58c0.59,0.86,1.54,1.29,2.86,1.29C183.36,73.7,184.07,73.52,184.66,73.18 M172.56,73.41V66.4
		c0.32-0.83,0.73-1.4,1.23-1.73c0.5-0.32,0.97-0.49,1.42-0.49c0.26,0,0.49,0.02,0.68,0.05c0.2,0.03,0.4,0.08,0.63,0.15l0.58-3.09
		c-0.18-0.08-0.38-0.14-0.6-0.18c-0.22-0.04-0.5-0.06-0.84-0.06c-0.62,0-1.23,0.19-1.85,0.58c-0.62,0.39-1.14,1-1.58,1.83h-0.1
		l-0.24-2.12h-2.92v12.06H172.56z M163.76,73.4c0.62-0.2,1.14-0.48,1.56-0.83c0.42-0.35,0.74-0.76,0.95-1.23
		c0.21-0.47,0.32-0.98,0.32-1.53c0-0.55-0.1-1.03-0.29-1.42c-0.19-0.4-0.45-0.73-0.77-1.01c-0.32-0.28-0.67-0.51-1.05-0.69
		c-0.38-0.19-0.77-0.35-1.16-0.5c-0.31-0.11-0.6-0.22-0.89-0.33c-0.28-0.11-0.54-0.22-0.75-0.33c-0.22-0.11-0.39-0.24-0.52-0.38
		c-0.13-0.14-0.2-0.3-0.2-0.5c0-0.63,0.45-0.95,1.36-0.95c0.42,0,0.84,0.09,1.27,0.27c0.42,0.18,0.85,0.43,1.29,0.75l1.6-2.14
		c-0.52-0.39-1.13-0.74-1.82-1.06c-0.7-0.32-1.51-0.47-2.43-0.47c-0.7,0-1.33,0.09-1.9,0.28c-0.57,0.19-1.05,0.44-1.46,0.77
		c-0.4,0.32-0.72,0.72-0.94,1.19c-0.22,0.47-0.33,0.98-0.33,1.53c0,0.5,0.1,0.95,0.29,1.33c0.2,0.38,0.45,0.71,0.75,1
		c0.31,0.28,0.65,0.52,1.02,0.72c0.37,0.19,0.75,0.37,1.12,0.51c0.31,0.13,0.61,0.25,0.9,0.35c0.29,0.1,0.55,0.22,0.79,0.35
		c0.23,0.13,0.42,0.27,0.56,0.43c0.14,0.15,0.21,0.33,0.21,0.52c0,0.33-0.12,0.58-0.36,0.75c-0.24,0.18-0.63,0.27-1.17,0.27
		c-0.52,0-1.03-0.11-1.53-0.32c-0.5-0.21-1.03-0.53-1.58-0.95L157,72.02c0.62,0.5,1.34,0.91,2.18,1.22
		c0.83,0.31,1.65,0.46,2.45,0.46C162.43,73.7,163.14,73.6,163.76,73.4 M144.25,73.41V66.4c0.32-0.83,0.73-1.4,1.23-1.73
		s0.97-0.49,1.42-0.49c0.26,0,0.49,0.02,0.68,0.05c0.2,0.03,0.4,0.08,0.63,0.15l0.58-3.09c-0.18-0.08-0.38-0.14-0.6-0.18
		c-0.22-0.04-0.5-0.06-0.84-0.06c-0.62,0-1.23,0.19-1.85,0.58c-0.62,0.39-1.14,1-1.58,1.83h-0.1l-0.24-2.12h-2.92v12.06H144.25z
		 M131.15,70.65c-0.25-0.19-0.38-0.47-0.38-0.86c0-0.47,0.24-0.88,0.73-1.22c0.49-0.34,1.36-0.6,2.63-0.78v2.12
		c-0.32,0.32-0.63,0.58-0.92,0.75c-0.29,0.18-0.64,0.27-1.05,0.27C131.74,70.93,131.41,70.83,131.15,70.65 M132.82,73.27
		c0.57-0.28,1.11-0.65,1.63-1.11h0.1l0.24,1.24h2.92V66.5c0-1.86-0.41-3.24-1.23-4.12c-0.82-0.88-2.01-1.32-3.56-1.32
		c-0.96,0-1.86,0.15-2.71,0.44c-0.85,0.29-1.67,0.67-2.44,1.14l1.29,2.36c0.58-0.34,1.13-0.61,1.64-0.8
		c0.51-0.19,1.02-0.29,1.54-0.29c0.66,0,1.14,0.16,1.42,0.47c0.28,0.32,0.44,0.74,0.47,1.28c-2.38,0.24-4.11,0.72-5.18,1.43
		c-1.07,0.71-1.61,1.7-1.61,2.97c0,0.52,0.08,1,0.26,1.43c0.17,0.44,0.41,0.82,0.72,1.16c0.31,0.33,0.68,0.59,1.13,0.78
		c0.45,0.19,0.95,0.28,1.5,0.28C131.63,73.7,132.25,73.56,132.82,73.27 M118.25,73.41v-2.97l1.53-1.73l2.72,4.69h3.87l-4.55-7.1
		l4.23-4.96h-3.89l-3.82,4.79h-0.1v-9.78h-3.48v17.05H118.25z"/>
	<path class="st0" d="M153.82,69.92V56.55h-3.48v13.82c0,1.88,0.78,3.33,3.45,3.33h1.79v-2.76h-0.63
		C154.08,70.93,153.82,70.64,153.82,69.92"/>
	<path class="st0" d="M199.69,61.22c-0.83,0-1.54,0.17-2.14,0.52c-0.53,0.31-1,0.64-1.41,0.99v-2l0-0.02v-4.18h0v0h-3.56v0h-0.01
		v17.05h0.01v0.02h3.56v-0.02h0v-8.15c0.39-0.37,0.74-0.66,1.07-0.86c0.32-0.2,0.71-0.31,1.17-0.31c0.52,0,0.89,0.16,1.13,0.49
		c0.23,0.32,0.35,0.92,0.35,1.8v7.03h3.57v-7.49c0-1.52-0.3-2.72-0.89-3.57C201.95,61.65,201,61.22,199.69,61.22"/>
	<path class="st0" d="M232.3,93.18v-4.01c0.24-0.23,0.46-0.41,0.65-0.53c0.19-0.12,0.41-0.18,0.66-0.18c0.32,0,0.55,0.1,0.69,0.29
		c0.14,0.19,0.21,0.53,0.21,1v3.43h1.34v-3.6c0-0.73-0.14-1.29-0.42-1.69c-0.28-0.39-0.73-0.59-1.35-0.59
		c-0.4,0-0.75,0.09-1.05,0.27c-0.3,0.18-0.58,0.39-0.83,0.64h-0.05l-0.09-0.77h-1.11v5.74H232.3z M226.28,88.7
		c0.26-0.24,0.56-0.36,0.9-0.36c0.4,0,0.69,0.13,0.88,0.38c0.19,0.25,0.29,0.6,0.29,1.05h-2.55
		C225.86,89.3,226.02,88.94,226.28,88.7 M228.38,93.14c0.33-0.12,0.64-0.26,0.91-0.44l-0.46-0.84c-0.21,0.13-0.42,0.24-0.64,0.31
		c-0.21,0.07-0.45,0.11-0.7,0.11c-0.47,0-0.85-0.14-1.15-0.42c-0.3-0.28-0.48-0.67-0.54-1.19h3.65c0.02-0.07,0.03-0.16,0.04-0.28
		c0.01-0.12,0.02-0.24,0.02-0.37c0-0.4-0.05-0.76-0.15-1.1c-0.1-0.33-0.25-0.62-0.45-0.87c-0.2-0.24-0.45-0.43-0.74-0.56
		c-0.3-0.13-0.64-0.2-1.03-0.2c-0.33,0-0.66,0.07-0.98,0.21c-0.32,0.14-0.6,0.34-0.85,0.6c-0.25,0.26-0.44,0.57-0.59,0.95
		c-0.15,0.37-0.22,0.79-0.22,1.26c0,0.48,0.07,0.9,0.22,1.27c0.14,0.37,0.35,0.68,0.6,0.94c0.26,0.26,0.56,0.45,0.9,0.59
		c0.34,0.14,0.71,0.2,1.11,0.2C227.7,93.32,228.05,93.26,228.38,93.14 M219.53,91.72c-0.22-0.32-0.33-0.8-0.33-1.42
		c0-0.61,0.13-1.08,0.39-1.4c0.26-0.33,0.57-0.49,0.95-0.49c0.19,0,0.39,0.03,0.58,0.11c0.19,0.07,0.39,0.19,0.59,0.37v2.68
		c-0.37,0.43-0.77,0.64-1.2,0.64C220.07,92.21,219.75,92.05,219.53,91.72 M221.06,93.1c0.28-0.15,0.53-0.33,0.74-0.54h0.05
		l0.09,0.62h1.11v-8.25h-1.35v2.08l0.05,0.92c-0.23-0.19-0.45-0.35-0.68-0.46c-0.23-0.11-0.5-0.17-0.83-0.17
		c-0.31,0-0.61,0.07-0.9,0.21c-0.29,0.14-0.55,0.34-0.78,0.6c-0.23,0.26-0.41,0.57-0.54,0.95c-0.14,0.37-0.2,0.79-0.2,1.26
		c0,0.95,0.21,1.69,0.64,2.21c0.42,0.53,1,0.79,1.72,0.79C220.48,93.32,220.78,93.24,221.06,93.1 M216.92,93.2l-0.17-1.01
		c-0.05,0.02-0.1,0.02-0.12,0.02h-0.09c-0.07,0-0.14-0.03-0.2-0.1c-0.06-0.07-0.09-0.18-0.09-0.35v-6.85h-1.34v6.78
		c0,0.5,0.1,0.89,0.29,1.18c0.19,0.29,0.53,0.43,1.02,0.43C216.5,93.32,216.74,93.28,216.92,93.2 M213.05,86.22
		c0.16-0.14,0.23-0.32,0.23-0.55c0-0.23-0.08-0.41-0.23-0.56c-0.16-0.14-0.35-0.22-0.6-0.22c-0.24,0-0.44,0.07-0.6,0.22
		c-0.16,0.14-0.23,0.33-0.23,0.56c0,0.23,0.08,0.41,0.23,0.55c0.16,0.14,0.36,0.21,0.6,0.21C212.69,86.43,212.89,86.36,213.05,86.22
		 M213.12,87.44h-1.34v5.74h1.34V87.44z M206.1,89.71h1.15c0.58,0,1.01,0.09,1.31,0.27c0.3,0.18,0.44,0.48,0.44,0.88
		c0,0.43-0.15,0.75-0.46,0.95c-0.3,0.21-0.74,0.31-1.3,0.31h-1.15V89.71z M206.1,86.59h0.99c0.5,0,0.87,0.08,1.12,0.23
		s0.37,0.42,0.37,0.79c0,0.33-0.12,0.59-0.36,0.78c-0.24,0.19-0.62,0.29-1.16,0.29h-0.97V86.59z M207.39,93.18
		c0.42,0,0.81-0.04,1.17-0.13c0.36-0.09,0.67-0.23,0.93-0.42c0.26-0.19,0.47-0.42,0.61-0.7c0.15-0.28,0.22-0.61,0.22-0.99
		c0-0.51-0.14-0.92-0.42-1.22c-0.28-0.3-0.62-0.5-1.05-0.59v-0.05c0.33-0.12,0.6-0.33,0.78-0.64c0.19-0.31,0.28-0.65,0.28-1.02
		c0-0.35-0.07-0.65-0.2-0.89c-0.14-0.24-0.33-0.43-0.57-0.58c-0.24-0.14-0.53-0.25-0.87-0.32c-0.33-0.07-0.69-0.1-1.09-0.1h-2.44
		v7.64H207.39z M200.81,89.39c-0.42,0-0.76,0.33-0.76,0.75s0.34,0.76,0.76,0.76c0.4,0,0.75-0.34,0.75-0.76
		C201.56,89.73,201.23,89.39,200.81,89.39 M193.92,93.18v-4.01c0.24-0.23,0.46-0.41,0.65-0.53c0.19-0.12,0.41-0.18,0.66-0.18
		c0.32,0,0.55,0.1,0.69,0.29c0.14,0.19,0.21,0.53,0.21,1v3.43h1.34v-3.6c0-0.73-0.14-1.29-0.42-1.69c-0.28-0.39-0.73-0.59-1.34-0.59
		c-0.4,0-0.75,0.09-1.05,0.27c-0.3,0.18-0.58,0.39-0.84,0.64h-0.05l-0.09-0.77h-1.11v5.74H193.92z M187.91,88.7
		c0.26-0.24,0.56-0.36,0.9-0.36c0.4,0,0.69,0.13,0.88,0.38c0.19,0.25,0.29,0.6,0.29,1.05h-2.55
		C187.49,89.3,187.65,88.94,187.91,88.7 M190.01,93.14c0.33-0.12,0.64-0.26,0.91-0.44l-0.46-0.84c-0.21,0.13-0.42,0.24-0.64,0.31
		s-0.45,0.11-0.7,0.11c-0.47,0-0.85-0.14-1.15-0.42c-0.3-0.28-0.48-0.67-0.54-1.19h3.65c0.02-0.07,0.03-0.16,0.04-0.28
		c0.01-0.12,0.02-0.24,0.02-0.37c0-0.4-0.05-0.76-0.15-1.1c-0.1-0.33-0.25-0.62-0.45-0.87c-0.2-0.24-0.45-0.43-0.74-0.56
		c-0.3-0.13-0.64-0.2-1.03-0.2c-0.34,0-0.66,0.07-0.98,0.21c-0.32,0.14-0.6,0.34-0.85,0.6c-0.24,0.26-0.44,0.57-0.59,0.95
		c-0.15,0.37-0.22,0.79-0.22,1.26c0,0.48,0.07,0.9,0.22,1.27s0.35,0.68,0.6,0.94c0.26,0.26,0.56,0.45,0.9,0.59
		c0.34,0.14,0.71,0.2,1.11,0.2C189.32,93.32,189.67,93.26,190.01,93.14 M181.69,92.1c-0.2-0.07-0.4-0.19-0.6-0.37v-2.68
		c0.44-0.43,0.86-0.64,1.26-0.64c0.44,0,0.75,0.16,0.95,0.48c0.2,0.32,0.29,0.77,0.29,1.34c0,0.65-0.13,1.15-0.39,1.48
		c-0.26,0.33-0.58,0.5-0.96,0.5C182.07,92.21,181.89,92.17,181.69,92.1 M183.45,93.11c0.3-0.14,0.56-0.34,0.78-0.61
		s0.41-0.59,0.54-0.98c0.14-0.39,0.2-0.82,0.2-1.32c0-0.44-0.05-0.85-0.15-1.2c-0.1-0.36-0.25-0.66-0.44-0.92
		c-0.2-0.25-0.43-0.45-0.71-0.58c-0.28-0.14-0.6-0.2-0.96-0.2c-0.3,0-0.59,0.07-0.87,0.2c-0.28,0.13-0.55,0.3-0.79,0.51l0.03-0.96
		v-2.13h-1.34v8.25h1.06l0.12-0.61h0.04c0.24,0.24,0.5,0.43,0.77,0.56c0.27,0.13,0.54,0.19,0.8,0.19
		C182.85,93.32,183.15,93.25,183.45,93.11 M175.07,88.7c0.26-0.24,0.56-0.36,0.9-0.36c0.4,0,0.69,0.13,0.88,0.38
		c0.19,0.25,0.29,0.6,0.29,1.05h-2.55C174.65,89.3,174.81,88.94,175.07,88.7 M177.17,93.14c0.33-0.12,0.64-0.26,0.91-0.44
		l-0.46-0.84c-0.21,0.13-0.42,0.24-0.64,0.31c-0.22,0.07-0.45,0.11-0.7,0.11c-0.47,0-0.85-0.14-1.15-0.42
		c-0.3-0.28-0.48-0.67-0.54-1.19h3.65c0.02-0.07,0.03-0.16,0.04-0.28c0.01-0.12,0.02-0.24,0.02-0.37c0-0.4-0.05-0.76-0.15-1.1
		c-0.1-0.33-0.25-0.62-0.45-0.87c-0.2-0.24-0.45-0.43-0.74-0.56c-0.3-0.13-0.64-0.2-1.03-0.2c-0.33,0-0.66,0.07-0.98,0.21
		c-0.32,0.14-0.6,0.34-0.85,0.6c-0.24,0.26-0.44,0.57-0.59,0.95c-0.15,0.37-0.22,0.79-0.22,1.26c0,0.48,0.07,0.9,0.22,1.27
		c0.14,0.37,0.35,0.68,0.6,0.94c0.26,0.26,0.56,0.45,0.9,0.59c0.34,0.14,0.71,0.2,1.11,0.2C176.49,93.32,176.84,93.26,177.17,93.14
		 M172.36,93.18v-1.14h-3.18v-6.5h-1.36v7.64H172.36z M163.89,89.39c-0.42,0-0.76,0.33-0.76,0.75s0.34,0.76,0.76,0.76
		c0.4,0,0.75-0.34,0.75-0.76C164.64,89.73,164.31,89.39,163.89,89.39 M156.77,93.18v-4.01c0.24-0.23,0.46-0.41,0.65-0.53
		c0.19-0.12,0.41-0.18,0.66-0.18c0.32,0,0.55,0.1,0.69,0.29c0.14,0.19,0.21,0.53,0.21,1v3.43h1.34v-3.6c0-0.73-0.14-1.29-0.42-1.69
		c-0.28-0.39-0.73-0.59-1.34-0.59c-0.4,0-0.75,0.09-1.05,0.27s-0.58,0.39-0.84,0.64h-0.05l-0.09-0.77h-1.11v5.74H156.77z
		 M150.75,88.7c0.26-0.24,0.56-0.36,0.9-0.36c0.4,0,0.69,0.13,0.88,0.38s0.29,0.6,0.29,1.05h-2.55
		C150.33,89.3,150.49,88.94,150.75,88.7 M152.85,93.14c0.33-0.12,0.64-0.26,0.91-0.44l-0.46-0.84c-0.21,0.13-0.42,0.24-0.64,0.31
		c-0.21,0.07-0.45,0.11-0.7,0.11c-0.47,0-0.85-0.14-1.15-0.42c-0.3-0.28-0.48-0.67-0.54-1.19h3.65c0.02-0.07,0.03-0.16,0.04-0.28
		c0.01-0.12,0.02-0.24,0.02-0.37c0-0.4-0.05-0.76-0.15-1.1c-0.1-0.33-0.25-0.62-0.45-0.87c-0.2-0.24-0.45-0.43-0.74-0.56
		c-0.3-0.13-0.64-0.2-1.03-0.2c-0.33,0-0.66,0.07-0.98,0.21c-0.32,0.14-0.6,0.34-0.85,0.6c-0.24,0.26-0.44,0.57-0.59,0.95
		c-0.15,0.37-0.22,0.79-0.22,1.26c0,0.48,0.07,0.9,0.22,1.27c0.14,0.37,0.35,0.68,0.6,0.94c0.26,0.26,0.56,0.45,0.9,0.59
		c0.34,0.14,0.71,0.2,1.11,0.2C152.17,93.32,152.52,93.26,152.85,93.14 M144.02,93.18v-4.01c0.24-0.23,0.46-0.41,0.65-0.53
		c0.19-0.12,0.41-0.18,0.66-0.18c0.32,0,0.55,0.1,0.69,0.29c0.14,0.19,0.21,0.53,0.21,1v3.43h1.34v-3.6c0-0.73-0.14-1.29-0.42-1.69
		c-0.28-0.39-0.73-0.59-1.34-0.59c-0.4,0-0.74,0.09-1.03,0.26c-0.29,0.17-0.56,0.38-0.8,0.6l0.05-1.11v-2.13h-1.34v8.25H144.02z
		 M140.58,93.14c0.32-0.12,0.62-0.29,0.89-0.53l-0.55-0.89c-0.16,0.13-0.35,0.25-0.54,0.34c-0.2,0.1-0.41,0.15-0.64,0.15
		c-0.45,0-0.82-0.17-1.11-0.52c-0.28-0.35-0.43-0.81-0.43-1.38c0-0.58,0.15-1.05,0.43-1.4s0.67-0.52,1.13-0.52
		c0.18,0,0.34,0.04,0.5,0.11c0.15,0.07,0.31,0.18,0.46,0.31l0.65-0.88c-0.21-0.18-0.45-0.33-0.72-0.46
		c-0.27-0.12-0.59-0.19-0.96-0.19c-0.38,0-0.75,0.07-1.09,0.2c-0.35,0.14-0.65,0.33-0.92,0.59c-0.26,0.26-0.47,0.57-0.63,0.95
		s-0.23,0.8-0.23,1.27c0,0.48,0.07,0.9,0.21,1.27c0.14,0.37,0.33,0.69,0.58,0.95c0.25,0.26,0.54,0.45,0.88,0.58
		c0.34,0.13,0.7,0.2,1.09,0.2C139.93,93.32,140.25,93.26,140.58,93.14 M134.54,93.18c0.28-0.09,0.51-0.22,0.7-0.38
		c0.19-0.16,0.33-0.35,0.43-0.56c0.1-0.21,0.15-0.45,0.15-0.69c0-0.26-0.05-0.49-0.15-0.68c-0.1-0.19-0.23-0.35-0.39-0.49
		c-0.16-0.13-0.34-0.24-0.53-0.33c-0.2-0.09-0.39-0.17-0.58-0.24c-0.16-0.05-0.31-0.11-0.45-0.16c-0.14-0.06-0.27-0.11-0.38-0.18
		c-0.11-0.06-0.2-0.13-0.26-0.22c-0.07-0.08-0.1-0.18-0.1-0.3c0-0.18,0.07-0.33,0.21-0.45c0.14-0.12,0.35-0.18,0.64-0.18
		c0.23,0,0.44,0.04,0.65,0.13c0.21,0.09,0.41,0.21,0.61,0.36l0.62-0.82c-0.23-0.18-0.51-0.34-0.83-0.48
		c-0.32-0.14-0.68-0.21-1.08-0.21c-0.65,0-1.16,0.16-1.53,0.48c-0.37,0.32-0.56,0.73-0.56,1.24c0,0.24,0.05,0.45,0.15,0.62
		c0.1,0.18,0.22,0.33,0.37,0.46c0.15,0.13,0.33,0.25,0.52,0.34c0.2,0.09,0.39,0.18,0.57,0.25c0.15,0.06,0.3,0.12,0.44,0.18
		c0.15,0.06,0.28,0.12,0.4,0.19c0.12,0.07,0.21,0.15,0.28,0.24c0.07,0.09,0.11,0.19,0.11,0.31c0,0.2-0.07,0.37-0.22,0.5
		c-0.15,0.13-0.38,0.19-0.69,0.19c-0.3,0-0.57-0.06-0.82-0.17c-0.25-0.11-0.51-0.27-0.77-0.47l-0.63,0.86
		c0.28,0.23,0.61,0.42,1,0.57c0.39,0.15,0.78,0.23,1.17,0.23C133.94,93.32,134.26,93.27,134.54,93.18 M128.71,93.18v-3.51
		c0.18-0.44,0.39-0.74,0.64-0.92c0.25-0.17,0.49-0.26,0.71-0.26c0.12,0,0.23,0.01,0.32,0.02c0.09,0.01,0.18,0.04,0.28,0.07
		l0.23-1.17c-0.16-0.08-0.38-0.12-0.65-0.12c-0.3,0-0.6,0.1-0.89,0.3c-0.29,0.2-0.53,0.49-0.74,0.86h-0.05l-0.09-1.02h-1.11v5.74
		H128.71z M122.2,91.7c-0.24-0.35-0.36-0.81-0.36-1.38c0-0.58,0.12-1.05,0.36-1.4c0.24-0.35,0.57-0.52,0.99-0.52
		c0.42,0,0.75,0.17,0.99,0.52c0.24,0.35,0.36,0.81,0.36,1.4c0,0.58-0.12,1.04-0.36,1.38c-0.24,0.35-0.57,0.52-0.99,0.52
		C122.77,92.22,122.44,92.05,122.2,91.7 M124.22,93.12c0.33-0.13,0.62-0.33,0.87-0.58c0.25-0.26,0.45-0.57,0.6-0.95
		c0.15-0.37,0.23-0.8,0.23-1.27c0-0.47-0.08-0.9-0.23-1.27s-0.35-0.69-0.6-0.95c-0.25-0.26-0.54-0.45-0.87-0.59
		c-0.33-0.14-0.68-0.2-1.03-0.2c-0.36,0-0.7,0.07-1.03,0.2c-0.33,0.14-0.62,0.33-0.87,0.59c-0.25,0.26-0.45,0.57-0.6,0.95
		c-0.15,0.37-0.22,0.8-0.22,1.27c0,0.48,0.07,0.9,0.22,1.27c0.15,0.37,0.35,0.69,0.6,0.95c0.25,0.26,0.54,0.45,0.87,0.58
		c0.33,0.13,0.67,0.2,1.03,0.2C123.55,93.32,123.89,93.25,124.22,93.12 M116.34,93.18v-3.19h2.78v-1.14h-2.78v-2.16h3.26v-1.15
		h-4.62v7.64H116.34z"/>
</g>
</svg>
